<?xml version="1.0" standalone="no"?>
<!DOCTYPE svg PUBLIC "-//W3C//DTD SVG 20010904//EN"
 "http://www.w3.org/TR/2001/REC-SVG-20010904/DTD/svg10.dtd">
<svg version="1.0" xmlns="http://www.w3.org/2000/svg"
 width="412.000000pt" height="599.000000pt" viewBox="0 0 412.000000 599.000000"
 preserveAspectRatio="xMidYMid meet">

<g transform="translate(0.000000,599.000000) scale(0.100000,-0.100000)"
fill="#000000" stroke="none">
<path d="M1880 5975 c-438 -70 -794 -398 -912 -841 l-23 -89 0 -1115 c0 -1108
0 -1116 21 -1195 71 -264 208 -474 409 -628 625 -477 1521 -192 1759 561 47
148 47 171 44 1312 l-3 1075 -22 78 c-57 201 -146 363 -274 500 -254 273 -628
400 -999 342z"/>
<path d="M105 3724 c-48 -26 -73 -54 -91 -100 -14 -38 -16 -86 -11 -411 5
-316 8 -384 26 -483 44 -240 109 -436 212 -642 206 -412 548 -752 954 -948
172 -84 318 -129 563 -176 22 -4 22 -5 22 -204 l0 -200 -350 0 c-331 0 -353
-1 -390 -20 -21 -11 -51 -36 -67 -57 -27 -36 -28 -39 -31 -189 -3 -135 -1
-156 16 -191 24 -47 47 -68 95 -88 32 -13 156 -15 1007 -15 851 0 975 2 1007
15 48 20 71 41 95 88 17 35 19 56 16 191 -3 151 -3 153 -32 190 -56 74 -67 76
-458 76 l-348 0 0 199 0 199 53 7 c92 12 309 72 417 115 273 108 499 258 711
469 335 335 539 770 588 1250 6 57 11 258 11 447 0 288 -3 351 -15 381 -20 48
-41 71 -88 95 -35 17 -56 19 -191 16 -150 -3 -153 -4 -189 -31 -21 -16 -46
-46 -57 -67 -19 -37 -20 -59 -20 -370 0 -182 -5 -374 -10 -428 -55 -510 -368
-960 -825 -1186 -207 -102 -375 -144 -605 -153 -167 -6 -281 4 -415 38 -179
46 -378 142 -527 255 -94 71 -245 228 -316 330 -86 121 -191 334 -230 470 -58
202 -63 247 -69 644 -6 409 -6 411 -80 467 -36 28 -39 28 -192 30 -128 2 -161
0 -186 -13z"/>
</g>
</svg>
